<svg width="20" height="20" viewBox="0 0 20 20" fill="none" xmlns="http://www.w3.org/2000/svg">
<mask id="mask0_2014_16763" style="mask-type:luminance" maskUnits="userSpaceOnUse" x="1" y="1" width="18" height="18">
<path d="M18.6673 1.65723H1.33398V18.9906H18.6673V1.65723Z" fill="white"/>
</mask>
<g mask="url(#mask0_2014_16763)">
<path d="M1.33398 7.93022C1.33398 5.73448 1.33398 4.6366 1.76131 3.79793C2.13719 3.06022 2.73698 2.46043 3.47469 2.08455C4.31336 1.65723 5.41124 1.65723 7.60698 1.65723H12.3943C14.5901 1.65723 15.688 1.65723 16.5266 2.08455C17.2643 2.46043 17.8641 3.06022 18.24 3.79793C18.6673 4.6366 18.6673 5.73448 18.6673 7.93022V12.7176C18.6673 14.9133 18.6673 16.0112 18.24 16.8498C17.8641 17.5876 17.2643 18.1873 16.5266 18.5632C15.688 18.9906 14.5901 18.9906 12.3943 18.9906H7.60698C5.41124 18.9906 4.31336 18.9906 3.47469 18.5632C2.73698 18.1873 2.13719 17.5876 1.76131 16.8498C1.33398 16.0112 1.33398 14.9133 1.33398 12.7176V7.93022Z" fill="#470137"/>
<path d="M10.4012 6.7543L8.23847 10.4156L10.5523 14.3034C10.6004 14.3916 10.5523 14.4111 10.4826 14.4111H8.83152C8.7152 14.4111 8.6338 14.4069 8.58731 14.3273C8.43211 14.0172 8.2771 13.7091 8.12215 13.403C7.96702 13.097 7.80229 12.785 7.62803 12.4668C7.45358 12.1489 7.28111 11.827 7.11057 11.5009C6.95543 11.8189 6.78291 12.1369 6.61638 12.4549C6.44961 12.773 6.28488 13.089 6.1222 13.403C5.95942 13.7172 5.79276 14.0292 5.62222 14.3392C5.59115 14.4108 5.53681 14.4181 5.4594 14.4181H3.86642C3.80383 14.4181 3.79628 14.3711 3.83155 14.3154L6.07569 10.5348L3.88966 6.74235C3.84996 6.68824 3.88413 6.63061 3.94782 6.63501H5.58731C5.6583 6.63104 5.72104 6.65779 5.76173 6.71852C5.90127 7.03658 6.0563 7.35465 6.22683 7.67259C6.39724 7.99068 6.56977 8.30478 6.74428 8.61474C6.91872 8.92482 7.09119 9.23886 7.23846 9.55693C7.39341 9.231 7.5504 8.913 7.70937 8.60285C7.86822 8.29277 8.03097 7.98071 8.19774 7.66665C8.36439 7.35267 8.52521 7.04061 8.68029 6.73046C8.7009 6.66243 8.75018 6.62795 8.81982 6.63501H10.343C10.4012 6.63501 10.4253 6.71443 10.4012 6.7543Z" fill="#FF61F6"/>
<path d="M13.7361 14.5659C12.7106 14.582 11.6365 14.1597 11.0966 13.2243C10.833 12.7751 10.7012 12.2127 10.7013 11.5367C10.6969 10.9894 10.8333 10.4505 11.0966 9.97444C11.7761 8.75975 13.1451 8.30462 14.4454 8.4241V6.07466C14.4454 6.01913 14.4687 5.99119 14.5152 5.99119H15.9803C16.0203 5.98532 16.0557 6.02166 16.05 6.06273V13.111C16.05 13.4017 16.0789 13.6915 16.0966 13.9815C16.0994 14.0311 16.0708 14.0801 16.0268 14.1008C15.3029 14.4105 14.5196 14.5623 13.7361 14.5659ZM14.4454 13.0871V9.83132C13.3834 9.53628 12.3523 10.3452 12.3524 11.4652C12.3272 12.6231 13.3254 13.4231 14.4454 13.0871Z" fill="#FF61F6"/>
</g>
</svg>
