<svg width="20" height="20" viewBox="0 0 20 20" fill="none" xmlns="http://www.w3.org/2000/svg">
<path d="M6.22099 8.44378C6.22099 8.65718 6.24264 8.8305 6.2838 8.95832C6.32931 9.08506 6.38782 9.22371 6.46797 9.37428C6.49354 9.41404 6.50744 9.46021 6.50805 9.50752C6.50805 9.56494 6.47341 9.62345 6.39973 9.68082L6.03578 9.9235C5.99207 9.95502 5.94013 9.97307 5.8863 9.97548C5.82779 9.97548 5.77037 9.94732 5.71296 9.89533C5.63511 9.81154 5.56546 9.72047 5.50498 9.62345C5.44054 9.51229 5.38091 9.39844 5.32625 9.28221C4.87671 9.81409 4.31235 10.0805 3.63208 10.0805C3.14788 10.0805 2.76117 9.9408 2.47953 9.66352C2.19681 9.38619 2.05273 9.01573 2.05273 8.5532C2.05273 8.06141 2.22605 7.66278 2.57702 7.36164C2.92907 7.0605 3.39594 6.91102 3.98955 6.91102C4.18453 6.91102 4.38709 6.92835 4.60049 6.95651C4.81389 6.98576 5.03378 7.03234 5.26342 7.08433V6.66187C5.26342 6.22208 5.17135 5.91553 4.99262 5.7368C4.80847 5.55698 4.4965 5.47032 4.05238 5.47032C3.85089 5.47032 3.644 5.49415 3.4306 5.54615C3.21858 5.59661 3.01044 5.66213 2.80775 5.74221C2.7423 5.77184 2.675 5.79717 2.60626 5.81804C2.57648 5.82788 2.54552 5.83371 2.51419 5.83537C2.43295 5.83537 2.39287 5.77687 2.39287 5.65555V5.37175C2.39287 5.27967 2.4037 5.20926 2.43295 5.17027C2.4766 5.11712 2.53231 5.07515 2.59543 5.04786C2.79583 4.94387 3.03847 4.85721 3.32119 4.78789C3.60283 4.71206 3.90289 4.67848 4.22028 4.67848C4.90596 4.67848 5.40749 4.83447 5.73029 5.14643C6.04769 5.45841 6.20909 5.93286 6.20909 6.5698V8.44378H6.21991H6.22099ZM3.88014 9.32229C4.06971 9.32229 4.26577 9.28763 4.47375 9.2183C4.68065 9.14897 4.86588 9.02115 5.02078 8.84783C5.11367 8.74142 5.18076 8.61502 5.21685 8.47845C5.25151 8.33871 5.27534 8.1719 5.27534 7.97475V7.73211C5.10038 7.68968 4.92317 7.65713 4.74456 7.63461C4.56495 7.61138 4.38405 7.59944 4.20295 7.59887C3.81623 7.59887 3.53351 7.67469 3.34394 7.83068C3.15329 7.98667 3.0623 8.20656 3.0623 8.49578C3.0623 8.76659 3.13055 8.96915 3.27462 9.10889C3.41327 9.25296 3.61475 9.32229 3.88014 9.32229ZM8.50879 9.94732C8.40477 9.94732 8.33544 9.92997 8.28998 9.88881C8.24338 9.85417 8.2033 9.77397 8.16866 9.66352L6.81462 5.19301C6.78792 5.11809 6.7701 5.04029 6.7615 4.9612C6.7615 4.86913 6.8081 4.81713 6.90016 4.81713H7.46563C7.57395 4.81713 7.6498 4.83447 7.68987 4.87455C7.73642 4.90921 7.77111 4.99045 7.80575 5.09986L8.77415 8.92908L9.67322 5.09986C9.70139 4.98503 9.73607 4.90921 9.78159 4.87455C9.85106 4.83197 9.93201 4.81192 10.0134 4.81713H10.4738C10.5842 4.81713 10.6579 4.83447 10.7045 4.87455C10.7511 4.90921 10.7911 4.99045 10.8139 5.09986L11.7249 8.97565L12.7215 5.09986C12.7399 5.01599 12.7799 4.93835 12.8373 4.87455C12.9045 4.83201 12.9834 4.8119 13.0627 4.81713H13.5988C13.691 4.81713 13.7429 4.86371 13.7429 4.9612C13.7429 4.99045 13.7364 5.0197 13.7321 5.05436C13.7228 5.10354 13.709 5.15176 13.691 5.19843L12.3011 9.66891C12.2665 9.78484 12.2264 9.86064 12.1809 9.89533C12.1155 9.93716 12.0385 9.95724 11.961 9.95271H11.466C11.3566 9.95271 11.2818 9.93541 11.2352 9.89533C11.1887 9.85417 11.1486 9.7794 11.1258 9.66352L10.2322 5.93394L9.34396 9.65918C9.3158 9.77506 9.28111 9.84982 9.23564 9.8899C9.18904 9.93106 9.10781 9.94841 9.00487 9.94841H8.50879V9.94732ZM15.9159 10.1033C15.6167 10.1037 15.3186 10.0688 15.0276 9.9993C14.7395 9.92997 14.5153 9.85417 14.3647 9.7675C14.2726 9.71551 14.2098 9.65809 14.186 9.60502C14.1639 9.55402 14.1525 9.49911 14.1524 9.44362V9.14897C14.1524 9.02765 14.1979 8.96915 14.2845 8.96915C14.3199 8.96923 14.355 8.97509 14.3886 8.98649C14.4232 8.9984 14.4752 9.02115 14.5326 9.04498C14.7276 9.13164 14.9421 9.20096 15.1663 9.24754C15.397 9.29304 15.6212 9.31687 15.852 9.31687C16.2159 9.31687 16.4976 9.25296 16.6936 9.12622C16.7878 9.0692 16.8652 8.98824 16.9179 8.89157C16.9706 8.79491 16.9968 8.686 16.9937 8.57594C16.9956 8.50163 16.9829 8.42767 16.9561 8.35833C16.9293 8.28898 16.8891 8.22562 16.8377 8.1719C16.7348 8.06141 16.5387 7.96283 16.256 7.87076L15.4198 7.61079C14.9995 7.47755 14.6875 7.2804 14.498 7.02042C14.3124 6.78021 14.2111 6.48555 14.2098 6.182C14.2098 5.93936 14.2618 5.72488 14.3647 5.53965C14.4687 5.3555 14.6074 5.19301 14.7807 5.06519C14.954 4.93304 15.149 4.83447 15.3797 4.76514C15.6104 4.69581 15.852 4.66656 16.1054 4.66656C16.2333 4.66656 16.3654 4.67198 16.4922 4.68931C16.6243 4.70664 16.7456 4.73048 16.8669 4.75431C16.9818 4.78247 17.0923 4.81064 17.1952 4.84638C17.2992 4.88104 17.3793 4.91571 17.4378 4.95037C17.5058 4.98453 17.5651 5.03381 17.6111 5.09444C17.6482 5.15084 17.6661 5.21771 17.662 5.28509V5.55698C17.662 5.6783 17.6165 5.74221 17.5299 5.74221C17.4532 5.73345 17.3789 5.70991 17.3111 5.67288C16.9627 5.51844 16.585 5.44156 16.204 5.44757C15.8758 5.44757 15.6158 5.49957 15.4371 5.61006C15.2584 5.71838 15.1663 5.88737 15.1663 6.12459C15.1663 6.28599 15.2237 6.42465 15.3396 6.53514C15.4544 6.64454 15.6678 6.75395 15.9733 6.85252L16.7922 7.1125C17.2071 7.24573 17.5071 7.43097 17.6859 7.6682C17.8646 7.90542 17.9502 8.17731 17.9502 8.47845C17.9502 8.72759 17.8993 8.95182 17.8007 9.14897C17.6986 9.34679 17.5553 9.52042 17.3804 9.65809C17.2017 9.80214 16.9883 9.90724 16.7402 9.98196C16.4803 10.0632 16.2094 10.1033 15.9159 10.1033Z" fill="white"/>
<path fill-rule="evenodd" clip-rule="evenodd" d="M17.0028 12.913C15.1072 14.318 12.3514 15.0643 9.98238 15.0643C6.66229 15.0643 3.67043 13.8327 1.41082 11.7854C1.23209 11.6229 1.39349 11.403 1.6058 11.5308C4.05064 12.9531 7.06528 13.8153 10.185 13.8153C12.2875 13.8153 14.5991 13.3755 16.7266 12.4732C17.044 12.3292 17.3148 12.6812 17.0028 12.913Z" fill="#FF9900"/>
<path fill-rule="evenodd" clip-rule="evenodd" d="M17.7948 12.0107C17.5532 11.6999 16.1927 11.8612 15.5764 11.936C15.3922 11.9598 15.363 11.7974 15.5298 11.676C16.613 10.9123 18.3949 11.1322 18.6018 11.3868C18.8098 11.6468 18.5444 13.4341 17.5294 14.2898C17.3745 14.4231 17.225 14.3549 17.2933 14.1815C17.524 13.6074 18.0375 12.3184 17.7948 12.0118V12.0107Z" fill="#FF9900"/>
</svg>
