<svg width="20" height="20" viewBox="0 0 20 20" fill="none" xmlns="http://www.w3.org/2000/svg">
<path d="M9.35259 16.6299C11.5795 16.1771 13.4185 15.8021 13.4397 15.7972L13.4784 15.7878L11.3762 12.9089C10.2196 11.3257 9.27395 10.0239 9.27395 10.0163C9.27395 10.0088 11.4448 3.11956 11.4573 3.09523C11.4616 3.08712 12.9388 6.02337 15.0386 10.2135L18.6404 17.4003L18.6678 17.4552H11.9862H5.30469L9.35259 16.6299Z" fill="#0089D6"/>
<path d="M1.33398 15.7518C1.33398 15.748 2.32459 13.7681 3.53539 11.3521L5.7368 6.95987L8.30501 4.48212C9.71608 3.11911 10.8745 2.00187 10.8788 2C10.8696 2.04133 10.8558 2.0815 10.8377 2.11977L8.04922 8.99784L5.31074 15.7536H3.32143C2.22914 15.7605 1.33398 15.7562 1.33398 15.7518Z" fill="#0089D6"/>
</svg>
