<svg width="20" height="20" viewBox="0 0 20 20" fill="none" xmlns="http://www.w3.org/2000/svg">
<path d="M14.7044 6.13462L14.8669 5.88389L15.1507 6.05951L15.2764 6.1512C15.5797 6.38978 16.2179 6.99951 16.3555 8.01129C16.5971 7.96711 16.8408 7.94502 17.0845 7.94502C17.6631 7.94502 18.052 8.08198 18.273 8.19576L18.3867 8.25872L18.4604 8.30842L18.6673 8.48072L18.5958 8.70167C18.4847 9.00449 18.311 9.27948 18.0867 9.50798C17.7725 9.83828 17.2199 10.2282 16.3435 10.279L16.1507 10.2845H15.9903C15.5895 11.3637 15.0511 12.5798 14.1465 13.6711C13.6098 14.3196 12.9731 14.8747 12.2615 15.3147C11.4083 15.8308 10.4741 16.1925 9.49997 16.384C8.80231 16.522 8.09378 16.5905 7.38418 16.5883C5.81334 16.5883 4.42665 16.2702 3.57405 15.7135C2.81246 15.2175 2.22744 14.4079 1.83419 13.3088C1.49003 12.3046 1.32101 11.2466 1.33476 10.1829C1.33298 10.0465 1.37922 9.91398 1.4651 9.80942C1.55097 9.70481 1.67078 9.63512 1.80277 9.61294L1.87644 9.60739H13.295L13.3946 9.59969L13.5561 9.582C13.8334 9.54443 14.2559 9.46051 14.5527 9.28376C14.1974 8.68398 14.0967 7.98257 14.2624 7.23588C14.3318 6.92442 14.4411 6.62361 14.5874 6.34118L14.7044 6.13462ZM4.46457 7.51313L4.5079 7.52086C4.52769 7.52841 4.54551 7.54051 4.55998 7.55622C4.57445 7.57193 4.58517 7.59082 4.59132 7.61144L4.59782 7.65562V9.10814L4.59132 9.15341C4.58506 9.17416 4.57417 9.19312 4.55951 9.20882C4.54485 9.22452 4.52681 9.23661 4.50682 9.244L4.46457 9.25063H2.93487C2.90636 9.25022 2.87871 9.24058 2.85593 9.22315C2.83314 9.20566 2.8164 9.18124 2.80812 9.15341L2.80054 9.10926V7.65452L2.80812 7.61033C2.81423 7.5894 2.82505 7.57021 2.83973 7.5543C2.8544 7.53838 2.87251 7.52617 2.89262 7.51865L2.93487 7.51203L4.46457 7.51313ZM6.57385 7.51313L6.61611 7.52086C6.6361 7.52827 6.65415 7.54031 6.66878 7.55602C6.68346 7.57174 6.69437 7.59071 6.70059 7.61144L6.70711 7.65562V9.10814L6.69952 9.15341C6.69325 9.17416 6.68239 9.19312 6.66771 9.20882C6.65308 9.22452 6.63503 9.23661 6.61504 9.244L6.57278 9.25063H5.04308C5.01461 9.25007 4.98704 9.24038 4.96428 9.22289C4.94153 9.20546 4.92475 9.18114 4.91633 9.15341L4.90874 9.11033V7.65562C4.90851 7.62607 4.91723 7.59716 4.93371 7.57284C4.95019 7.54852 4.97363 7.52999 5.00083 7.51976L5.04308 7.51203L6.57385 7.51313ZM8.71457 7.51313L8.75683 7.52086C8.77661 7.52841 8.7944 7.54051 8.80888 7.55622C8.82336 7.57193 8.83407 7.59082 8.84024 7.61144L8.84783 7.65562V9.10814L8.84024 9.15341C8.83396 9.17416 8.82311 9.19312 8.80842 9.20882C8.79374 9.22452 8.77575 9.23661 8.75571 9.244L8.7135 9.25063H7.18378C7.15528 9.25022 7.1276 9.24058 7.10481 9.22315C7.08202 9.20566 7.0653 9.18124 7.05704 9.15341L7.05052 9.10926V7.65452L7.05704 7.61033C7.06316 7.5894 7.07397 7.57021 7.08865 7.5543C7.10328 7.53838 7.12143 7.52617 7.14152 7.51865L7.18378 7.51203L8.71457 7.51313ZM10.8293 7.51313L10.8715 7.52086C10.8915 7.52827 10.9095 7.54031 10.9242 7.55602C10.9389 7.57174 10.9498 7.59071 10.956 7.61144L10.9636 7.65562V9.10814C10.9638 9.13771 10.9551 9.16661 10.9386 9.19093C10.9222 9.21525 10.8987 9.23375 10.8715 9.244L10.8282 9.25063H9.29957C9.27107 9.25022 9.24339 9.24058 9.2206 9.22315C9.19781 9.20566 9.18109 9.18124 9.17283 9.15341L9.16631 9.10926V7.65452L9.17283 7.61033C9.17895 7.5894 9.18976 7.57021 9.20444 7.5543C9.21907 7.53838 9.23722 7.52617 9.25731 7.51865L9.30064 7.51203H10.8304L10.8293 7.51313ZM12.9635 7.51313L13.0057 7.52086C13.0257 7.52827 13.0438 7.54031 13.0584 7.55602C13.0731 7.57174 13.0839 7.59071 13.0902 7.61144L13.0967 7.65562V9.10814C13.0969 9.13771 13.0882 9.16661 13.0718 9.19093C13.0553 9.21525 13.0318 9.23375 13.0046 9.244L12.9624 9.25063H11.4327C11.4042 9.25022 11.3765 9.24058 11.3537 9.22315C11.3309 9.20566 11.3142 9.18124 11.306 9.15341L11.2994 9.10926V7.65452L11.306 7.61033C11.3121 7.5894 11.3229 7.57021 11.3376 7.5543C11.3522 7.53838 11.3703 7.52617 11.3904 7.51865L11.4338 7.51203H12.9624L12.9635 7.51313ZM6.57171 5.42328L6.61504 5.43101C6.63472 5.43846 6.65246 5.45039 6.66689 5.46589C6.68137 5.4814 6.69213 5.50007 6.69845 5.52048L6.70604 5.56577V7.01828C6.70625 7.04784 6.69753 7.07675 6.68106 7.10106C6.6646 7.12538 6.64115 7.14391 6.61392 7.15415L6.57171 7.16188H5.04308C5.01434 7.16117 4.98656 7.15116 4.96377 7.13328C4.94098 7.11541 4.92437 7.09061 4.91633 7.06247L4.90874 7.01828V5.56577C4.90873 5.5364 4.91755 5.50774 4.93402 5.48365C4.95049 5.45955 4.97381 5.44118 5.00083 5.43101L5.04308 5.42328H6.57171ZM8.71238 5.42328L8.75571 5.43101C8.77539 5.43846 8.79313 5.45039 8.80761 5.46589C8.82209 5.4814 8.83284 5.50007 8.83917 5.52048L8.84671 5.56577V7.01828C8.84697 7.04784 8.83825 7.07675 8.82178 7.10106C8.80526 7.12538 8.78186 7.14391 8.75464 7.15415L8.71238 7.16188H7.18378C7.15503 7.16117 7.12724 7.15116 7.10446 7.13328C7.08167 7.11541 7.06505 7.09061 7.05704 7.06247L7.05052 7.01828V5.56577L7.05704 5.52159C7.06326 5.50086 7.07417 5.48189 7.08886 5.46617C7.10349 5.45046 7.12153 5.43843 7.14152 5.43101L7.18378 5.42328H8.71238ZM10.8282 5.42328C10.8867 5.42328 10.9365 5.46415 10.955 5.52048L10.9625 5.56577V7.01828C10.9628 7.04784 10.954 7.07675 10.9376 7.10106C10.9211 7.12538 10.8977 7.14391 10.8704 7.15415L10.8271 7.16188H9.29957C9.27082 7.16117 9.24303 7.15116 9.22024 7.13328C9.19746 7.11541 9.18084 7.09061 9.17283 7.06247L9.16631 7.01828V5.56577L9.17283 5.52159C9.17905 5.50086 9.18996 5.48189 9.20464 5.46617C9.21927 5.45046 9.23732 5.43843 9.25731 5.43101L9.30064 5.42328H10.8304H10.8282ZM10.8282 3.33344C10.8867 3.33344 10.9365 3.3743 10.955 3.43064L10.9625 3.47482V4.92843C10.9628 4.95799 10.954 4.9869 10.9376 5.01121C10.9211 5.03553 10.8977 5.05407 10.8704 5.0643L10.8271 5.07092H9.29957C9.27107 5.07054 9.24339 5.06091 9.2206 5.04343C9.19781 5.02596 9.18109 5.00154 9.17283 4.97372L9.16631 4.92954V3.47482L9.17283 3.43064C9.17905 3.40991 9.18996 3.39094 9.20464 3.37522C9.21927 3.35951 9.23732 3.34747 9.25731 3.34006L9.29957 3.33344H10.8293H10.8282Z" fill="#2396ED"/>
</svg>
