<svg width="20" height="20" viewBox="0 0 20 20" fill="none" xmlns="http://www.w3.org/2000/svg">
<path d="M18.4447 5.33455H18.1522C17.7906 5.33455 17.45 5.50315 17.2301 5.79011L14.2366 9.7047L11.2431 5.79011C11.0239 5.50315 10.683 5.33455 10.3217 5.33455H10.0292L13.8041 10.2707L9.94836 15.3128H10.2408C10.6025 15.3128 10.9431 15.1442 11.1626 14.8573L14.237 10.837L17.3113 14.8573C17.5308 15.1442 17.8715 15.3128 18.2331 15.3128H18.5256L14.6698 10.2707L18.4447 5.33455ZM8.65909 13.3316C7.78031 14.667 6.05028 15.3514 4.39629 14.7479C2.94118 14.2169 2.02214 12.7704 2.02214 11.2214V10.8398H6.1511H9.93597V9.4174C9.93597 7.17916 8.27819 5.21963 6.04959 5.01009C3.49239 4.76957 1.33398 6.78312 1.33398 9.29146V11.209C1.33398 13.057 2.4402 14.775 4.17918 15.4009C6.45113 16.2184 8.84076 14.9983 9.64866 12.9043H9.42914C9.11568 12.9043 8.83113 13.0698 8.65909 13.3316ZM2.02214 9.29146C2.02214 7.29924 3.64276 5.67863 5.63498 5.67863C7.6272 5.67863 9.24781 7.29924 9.24781 9.29146V10.1517H2.02214V9.29146Z" fill="url(#paint0_linear_2014_16759)"/>
<defs>
<linearGradient id="paint0_linear_2014_16759" x1="9.92978" y1="4.99056" x2="9.92978" y2="15.6573" gradientUnits="userSpaceOnUse">
<stop stop-color="white"/>
<stop offset="1" stop-color="#999999"/>
</linearGradient>
</defs>
</svg>
