<svg width="20" height="20" viewBox="0 0 20 20" fill="none" xmlns="http://www.w3.org/2000/svg">
<path fill-rule="evenodd" clip-rule="evenodd" d="M10.291 10.3239C10.291 8.72843 11.5502 7.43502 13.1035 7.43502C14.6568 7.43502 15.916 8.72843 15.916 10.3239C15.916 11.9194 14.6568 13.2128 13.1035 13.2128C11.5502 13.2128 10.291 11.9194 10.291 10.3239Z" fill="#1ABCFE"/>
<path fill-rule="evenodd" clip-rule="evenodd" d="M4.66602 16.1017C4.66602 14.5062 5.92521 13.2128 7.47852 13.2128H10.291V16.1017C10.291 17.6971 9.03179 18.9906 7.47852 18.9906C5.92521 18.9906 4.66602 17.6971 4.66602 16.1017Z" fill="#0ACF83"/>
<path fill-rule="evenodd" clip-rule="evenodd" d="M10.291 1.65723V7.43499H13.1035C14.6568 7.43499 15.916 6.14157 15.916 4.54611C15.916 2.95062 14.6568 1.65723 13.1035 1.65723H10.291Z" fill="#FF7262"/>
<path fill-rule="evenodd" clip-rule="evenodd" d="M4.66602 4.54611C4.66602 6.14157 5.92521 7.43499 7.47852 7.43499H10.291V1.65723H7.47852C5.92521 1.65723 4.66602 2.95062 4.66602 4.54611Z" fill="#F24E1E"/>
<path fill-rule="evenodd" clip-rule="evenodd" d="M4.66602 10.3239C4.66602 11.9194 5.92521 13.2128 7.47852 13.2128H10.291V7.43502H7.47852C5.92521 7.43502 4.66602 8.72843 4.66602 10.3239Z" fill="#A259FF"/>
</svg>
