<svg width="20" height="20" viewBox="0 0 20 20" fill="none" xmlns="http://www.w3.org/2000/svg">
<path d="M12.8597 7.18051L14.3665 5.6738L14.4669 5.03937C11.7212 2.54278 7.35674 2.82586 4.88164 5.63006C4.19414 6.40891 3.68409 7.37991 3.41211 8.3826L3.95174 8.30656L6.96509 7.80965L7.19771 7.57172C8.53815 6.09961 10.8045 5.90157 12.3522 7.1541L12.8597 7.18051Z" fill="#EA4335"/>
<path d="M16.514 8.33818C16.1677 7.06282 15.4566 5.91632 14.4681 5.03931L12.3534 7.15396C13.2463 7.88359 13.755 8.98278 13.7332 10.1356V10.511C14.7726 10.511 15.6153 11.3536 15.6153 12.393C15.6153 13.4324 14.7726 14.254 13.7332 14.254H9.96386L9.59375 14.6557V16.9131L9.96386 17.2673H13.7332C16.4368 17.2884 18.6456 15.1349 18.6666 12.4313C18.6794 10.7926 17.8714 9.25632 16.514 8.33818Z" fill="#4285F4"/>
<path d="M6.20135 17.2674H9.96543V14.254H6.20135C5.93316 14.2539 5.67343 14.1963 5.42954 14.0848L4.89553 14.2487L3.37826 15.7554L3.24609 16.2682C4.09699 16.9107 5.13515 17.272 6.20135 17.2674Z" fill="#34A853"/>
<path d="M6.20019 7.49265C3.49653 7.50876 1.31796 9.71362 1.33407 12.4172C1.34308 13.927 2.04819 15.3481 3.24493 16.2685L5.42838 14.0851C4.48108 13.6571 4.06014 12.5423 4.48812 11.5951C4.91604 10.6478 6.03091 10.2269 6.97806 10.6548C7.3955 10.8434 7.72976 11.1777 7.91834 11.5951L10.1018 9.41171C9.17275 8.19722 7.72922 7.48716 6.20019 7.49265Z" fill="#FBBC05"/>
</svg>
