<svg width="20" height="20" viewBox="0 0 20 20" fill="none" xmlns="http://www.w3.org/2000/svg">
<path d="M5.66747 18.133C5.93242 18.4773 6.3348 18.6666 6.74956 18.6666H13.2508C13.6656 18.6666 14.0679 18.4623 14.3341 18.1293L18.3679 12.9565C18.6328 12.6123 18.7244 12.1728 18.6328 11.7457L17.1904 5.29894C17.1463 5.09227 17.0558 4.89831 16.9259 4.73167C16.7959 4.56504 16.6299 4.43007 16.4402 4.33694L10.6037 1.47694C10.4178 1.38208 10.212 1.33285 10.0033 1.33332C9.79526 1.33332 9.58853 1.38036 9.40277 1.4757L3.56518 4.34808C3.37577 4.44143 3.20998 4.57649 3.08024 4.74311C2.95051 4.90972 2.86021 5.10356 2.81614 5.31008L1.37375 11.7581C1.26975 12.1853 1.37375 12.6248 1.63871 12.9689L5.66747 18.1318V18.133Z" fill="#326DE6"/>
<path fill-rule="evenodd" clip-rule="evenodd" d="M15.8721 11.3965C15.9934 11.399 16.1147 11.4089 16.2349 11.4262L16.3067 11.4424L16.345 11.4522C16.3973 11.4592 16.4475 11.477 16.4925 11.5043C16.5376 11.5317 16.5764 11.5682 16.6067 11.6114C16.6369 11.6545 16.6579 11.7035 16.6682 11.7552C16.6786 11.8068 16.6782 11.8601 16.667 11.9116C16.6553 11.9633 16.6329 12.012 16.6013 12.0546C16.5697 12.0971 16.5294 12.1326 16.4832 12.1586C16.437 12.1847 16.3858 12.2007 16.333 12.2057C16.2802 12.2107 16.2269 12.2046 16.1767 12.1877H16.1717L16.168 12.1864L16.1642 12.1839C16.1519 12.1813 16.1395 12.1789 16.1272 12.1765L16.0652 12.1641C15.9497 12.127 15.8365 12.0831 15.726 12.0329C15.5129 11.9469 15.2918 11.8818 15.0661 11.8385C14.9879 11.8363 14.9119 11.8647 14.8544 11.9177C14.8005 11.9075 14.7464 11.898 14.6922 11.8893C14.3251 13.0393 13.5477 14.0142 12.5082 14.6279C12.5267 14.6799 12.5478 14.7307 12.5713 14.7802C12.5329 14.8479 12.5227 14.928 12.5429 15.0031C12.6345 15.2136 12.7472 15.4141 12.8784 15.6024C12.9527 15.6989 13.0195 15.8004 13.0814 15.9044L13.1161 15.975L13.1309 16.0059C13.1723 16.0745 13.1909 16.1542 13.184 16.234C13.1772 16.3137 13.1454 16.3892 13.093 16.4497C13.0406 16.5102 12.9704 16.5525 12.8925 16.5707C12.8146 16.5888 12.7329 16.5818 12.6592 16.5507C12.6102 16.5304 12.5659 16.5002 12.5292 16.4617C12.4926 16.4234 12.4643 16.3778 12.4462 16.3279L12.4339 16.3031C12.4219 16.2794 12.4103 16.2555 12.3992 16.2313C12.3559 16.118 12.3191 16.0022 12.289 15.8846C12.2232 15.6653 12.1362 15.4531 12.029 15.2507C11.9825 15.1878 11.9132 15.1456 11.8359 15.1331L11.7987 15.0675L11.7554 14.9882C10.6287 15.4137 9.38489 15.4106 8.26025 14.9796L8.17358 15.1344C8.11245 15.1438 8.05548 15.1714 8.01019 15.2136C7.881 15.4249 7.7822 15.6533 7.71673 15.8921C7.68721 16.0096 7.65081 16.1254 7.60782 16.2387C7.59794 16.2596 7.58766 16.2802 7.57685 16.3006L7.56073 16.3341C7.54294 16.3841 7.51474 16.4311 7.47805 16.4695C7.44137 16.508 7.39705 16.5384 7.34788 16.5586C7.29871 16.5787 7.24585 16.5884 7.19275 16.5868C7.13959 16.5853 7.0874 16.5726 7.03951 16.5494C6.9677 16.5151 6.90844 16.4592 6.87003 16.3895C6.83162 16.3198 6.81598 16.2398 6.82533 16.1607C6.83168 16.1082 6.84898 16.0576 6.87608 16.0121L6.89342 15.975L6.92561 15.9106C6.98751 15.8054 7.05437 15.7051 7.12867 15.6085C7.26237 15.4154 7.37625 15.2099 7.47158 14.9944C7.48146 14.9212 7.46945 14.8466 7.43692 14.7802L7.50625 14.6156C6.47058 14.0065 5.6937 13.0394 5.32228 11.8967L5.15637 11.9252C5.09232 11.8798 5.01684 11.8532 4.93847 11.8484C4.71278 11.8913 4.49177 11.956 4.27856 12.0416C4.16713 12.0911 4.05447 12.1344 3.93932 12.1716C3.9188 12.1767 3.89817 12.1812 3.87742 12.1852L3.84028 12.1939H3.83656L3.83408 12.1964H3.8279C3.76512 12.2165 3.69819 12.22 3.63365 12.2065C3.56911 12.1931 3.50915 12.1631 3.45964 12.1196C3.41012 12.0761 3.37274 12.0205 3.35114 11.9582C3.32953 11.8959 3.32444 11.8291 3.33637 11.7642C3.35157 11.6862 3.39096 11.6148 3.44896 11.5604C3.50696 11.506 3.58063 11.4711 3.65952 11.4609L3.6657 11.4597H3.66818L3.67561 11.4572C3.70532 11.4497 3.74247 11.4399 3.7697 11.4349C3.8898 11.4188 4.01113 11.4089 4.13247 11.4064C4.36275 11.3904 4.59056 11.3532 4.81218 11.295C4.87786 11.2529 4.93328 11.1966 4.97437 11.1304L5.13285 11.0845C4.961 9.89217 5.23665 8.67844 5.90666 7.67726L5.78533 7.56957C5.78069 7.49116 5.75409 7.41565 5.70856 7.35169C5.53408 7.20198 5.34541 7.06972 5.14523 6.95671C5.03698 6.90171 4.93198 6.84053 4.83075 6.77347L4.77133 6.72643L4.75275 6.71033L4.7478 6.70661C4.66152 6.64515 4.60315 6.55196 4.58551 6.44751C4.56787 6.34305 4.59239 6.23586 4.6537 6.14947C4.69014 6.10524 4.73646 6.0702 4.78894 6.04719C4.84142 6.02417 4.89858 6.01383 4.9558 6.017C5.05201 6.02107 5.14441 6.05578 5.21951 6.11604L5.24675 6.13709C5.26656 6.15319 5.28885 6.16928 5.3037 6.1829C5.39285 6.26586 5.4758 6.355 5.5538 6.44661C5.70856 6.61624 5.87942 6.771 6.0639 6.90719C6.13323 6.94433 6.2137 6.95176 6.28923 6.92947L6.42542 7.02604C7.25445 6.14679 8.38043 5.60674 9.58504 5.51061L9.59492 5.3509C9.65368 5.29874 9.6962 5.23086 9.71752 5.15528C9.72578 4.92623 9.71168 4.69692 9.6754 4.47061C9.65125 4.35202 9.63386 4.23215 9.6234 4.11157V4.01004V4.00386C9.61803 3.95097 9.62386 3.89755 9.64044 3.84706C9.65708 3.79657 9.68412 3.75014 9.71983 3.71078C9.7556 3.67144 9.79922 3.64004 9.84787 3.61865C9.89652 3.59726 9.94915 3.58634 10.0022 3.58661C10.0553 3.58672 10.1078 3.5979 10.1562 3.61942C10.2047 3.64094 10.2482 3.67233 10.2838 3.7116C10.3194 3.75087 10.3465 3.79714 10.3633 3.84746C10.3801 3.89779 10.3861 3.95105 10.3812 4.00386V4.11157C10.3712 4.23213 10.3542 4.35201 10.3304 4.47061C10.2937 4.69689 10.2792 4.92619 10.287 5.15528C10.3019 5.23218 10.3464 5.30018 10.4109 5.34471V5.35338L10.4195 5.51309C11.6167 5.62204 12.7347 6.15938 13.5642 7.02728L13.7079 6.92576C13.7855 6.9392 13.8653 6.93062 13.9382 6.901C14.1227 6.76481 14.2935 6.60881 14.4482 6.43919C14.5262 6.34633 14.6092 6.25843 14.6984 6.17547L14.7615 6.12595L14.7826 6.10861C14.8205 6.07106 14.8658 6.0419 14.9157 6.02303C14.9656 6.00416 15.0189 5.99601 15.0721 5.99909C15.1254 6.00218 15.1774 6.01644 15.2248 6.04094C15.2722 6.06545 15.3139 6.09966 15.3472 6.14133C15.3804 6.18301 15.4046 6.23123 15.418 6.28285C15.4315 6.33448 15.4339 6.38835 15.4251 6.44097C15.4163 6.49359 15.3966 6.54377 15.3671 6.58826C15.3377 6.63274 15.2993 6.67054 15.2542 6.69919L15.2246 6.72395C15.206 6.73881 15.1874 6.7549 15.1713 6.76604C15.0701 6.83315 14.9651 6.89433 14.8569 6.94928C14.6567 7.0628 14.468 7.19545 14.2935 7.34545C14.2427 7.40438 14.217 7.48082 14.2217 7.55841L14.1598 7.6129L14.088 7.67853C14.759 8.67641 15.0413 9.88605 14.8767 11.0771L15.0289 11.1217C15.0673 11.1897 15.1242 11.2467 15.1936 11.2851C15.4152 11.3445 15.643 11.3817 15.8721 11.3965ZM9.12449 6.58281C9.25692 6.55309 9.39188 6.52957 9.52807 6.51347L9.41667 8.49441L9.40673 8.49938C9.40494 8.54439 9.39397 8.58859 9.37449 8.62927C9.35502 8.66994 9.32746 8.70623 9.29355 8.73587C9.25957 8.76551 9.21994 8.78798 9.17707 8.80179C9.13414 8.8156 9.0889 8.82057 9.044 8.81635C8.98369 8.81121 8.92591 8.78983 8.87685 8.75441L8.87437 8.75569L7.24504 7.60423C7.76382 7.09661 8.41504 6.74252 9.12449 6.58281ZM11.1277 8.74945L12.7472 7.60545C12.1305 7.00297 11.3333 6.61936 10.4777 6.51347L10.5892 8.49193H10.5916C10.5934 8.53711 10.6044 8.58143 10.624 8.62216C10.6435 8.66289 10.6712 8.69924 10.7052 8.72893C10.7393 8.75857 10.7791 8.78099 10.8222 8.79474C10.8652 8.80849 10.9106 8.81335 10.9556 8.8089C11.0159 8.80376 11.0737 8.78238 11.1227 8.74702L11.1277 8.74945ZM13.9109 10.7997L11.9944 10.2476L11.9919 10.2401C11.9484 10.2281 11.9079 10.2075 11.8726 10.1793C11.8374 10.1513 11.8082 10.1163 11.7868 10.0767C11.7654 10.037 11.7523 9.9934 11.7482 9.94851C11.744 9.90361 11.749 9.85837 11.7629 9.81545C11.7818 9.7579 11.816 9.70653 11.8619 9.6669L11.8594 9.66569L13.3389 8.3446C13.7921 9.08005 13.9914 9.94175 13.9085 10.7997H13.9109ZM11.3592 11.8571L12.1244 13.7019C12.856 13.2364 13.4115 12.5401 13.7029 11.7234L11.7307 11.3904L11.7282 11.3941C11.6584 11.3806 11.5862 11.3906 11.5227 11.4225C11.4458 11.4601 11.3863 11.5257 11.3563 11.6059C11.3263 11.686 11.3283 11.7746 11.3617 11.8534L11.3592 11.8571ZM10.8826 14.2157C10.1732 14.3766 9.43401 14.3394 8.74437 14.1067L9.70637 12.3734C9.73491 12.3203 9.77853 12.276 9.83024 12.245C9.8819 12.214 9.941 12.1976 10.0013 12.1975C10.0615 12.1973 10.1208 12.2135 10.1726 12.2442C10.2244 12.275 10.2669 12.3192 10.2957 12.3721H10.3032L11.2676 14.1079C11.1411 14.1502 11.0126 14.1861 10.8826 14.2157ZM7.88885 13.6932L8.64534 11.8682L8.64037 11.8608C8.66452 11.8054 8.67301 11.7444 8.66498 11.6844C8.65701 11.6245 8.63274 11.5678 8.5949 11.5207C8.55705 11.4736 8.50702 11.4376 8.45022 11.4168C8.39343 11.396 8.33201 11.3912 8.27267 11.4027L8.26892 11.399L6.31399 11.7296C6.6083 12.5397 7.16189 13.23 7.88885 13.6932ZM6.65447 8.3446L8.1414 9.6706L8.14019 9.67926C8.18554 9.7189 8.21929 9.77009 8.23783 9.82735C8.25638 9.88461 8.25909 9.94585 8.24563 10.0046C8.23217 10.0632 8.20305 10.1172 8.16139 10.1606C8.11968 10.2041 8.06704 10.2354 8.00892 10.2513L8.0077 10.2574L6.10104 10.8059C6.00621 9.94677 6.20098 9.08051 6.65447 8.3446ZM10.3069 9.77338H9.6977L9.31758 10.2439L9.45382 10.8332L10.0022 11.0969L10.5495 10.8344L10.6857 10.2451L10.3069 9.77338Z" fill="white"/>
</svg>
