<svg width="16" height="18" viewBox="0 0 16 18" fill="none" xmlns="http://www.w3.org/2000/svg">
<path d="M7.69065 17.3333C7.45839 17.3333 7.22813 17.2727 7.0246 17.1553L4.90442 15.8998C4.58756 15.7225 4.74214 15.6598 4.84656 15.6238C5.26898 15.4762 5.35432 15.4426 5.80508 15.1864C5.85244 15.1593 5.91436 15.169 5.96291 15.1977L7.59189 16.1644C7.65055 16.1964 7.73435 16.1964 7.78856 16.1644L14.1399 12.4981C14.1986 12.4645 14.237 12.3965 14.237 12.3266V4.9977C14.237 4.92446 14.199 4.85929 14.1387 4.8229L7.79016 1.15944C7.73149 1.12464 7.65341 1.12464 7.59474 1.15944L1.24704 4.8225C1.18554 4.85729 1.14629 4.92566 1.14629 4.99564V12.325C1.14629 12.3949 1.18432 12.4617 1.24502 12.4949L2.98448 13.4996C3.92888 13.9718 4.50588 13.4154 4.50588 12.8558V5.62239C4.50588 5.51923 4.58676 5.43954 4.69039 5.43954H5.49473C5.5951 5.43954 5.67764 5.51883 5.67764 5.62239V12.8595C5.67764 14.1186 4.99102 14.8421 3.79698 14.8421C3.42957 14.8421 3.14026 14.8421 2.33264 14.4447L0.666413 13.4846C0.254505 13.2458 0 12.8004 0 12.3254V4.99604C0 4.51901 0.254505 4.07393 0.666007 3.83844L7.0242 0.170546C7.4264 -0.0568487 7.9605 -0.0568487 8.35985 0.170546L14.71 3.84005C15.1195 4.07675 15.3756 4.52062 15.3756 4.9977V12.327C15.3756 12.8024 15.1195 13.2458 14.7096 13.4846L8.35945 17.1521C8.15592 17.2698 7.92531 17.3301 7.6902 17.3301" fill="#21A366"/>
<path d="M9.65454 12.2832C6.87562 12.2832 6.29297 11.0074 6.29297 9.93764C6.29297 9.83607 6.37511 9.75473 6.47708 9.75473H7.29765C7.38824 9.75473 7.46473 9.82071 7.4789 9.91011C7.60274 10.746 7.97175 11.1677 9.65214 11.1677C10.9906 11.1677 11.5599 10.8654 11.5599 10.1553C11.5599 9.74662 11.3976 9.44318 9.31831 9.23965C7.57886 9.06811 6.50415 8.68493 6.50415 7.29382C6.50415 6.01238 7.58532 5.24928 9.396 5.24928C11.4296 5.24928 12.4375 5.95537 12.5646 7.47187C12.5695 7.52448 12.5504 7.57504 12.5152 7.61348C12.4804 7.64992 12.4311 7.67214 12.3801 7.67214H11.5551C11.4693 7.67214 11.3944 7.61188 11.377 7.52894C11.1783 6.6497 10.6981 6.36848 9.39274 6.36848C7.93165 6.36848 7.76171 6.87705 7.76171 7.25863C7.76171 7.7211 7.96204 7.85625 9.93336 8.11725C11.8856 8.37618 12.8126 8.742 12.8126 10.114C12.8126 11.497 11.6582 12.2905 9.64563 12.2905" fill="#21A366"/>
</svg>
