<svg width="20" height="20" viewBox="0 0 20 20" fill="none" xmlns="http://www.w3.org/2000/svg">
<path fill-rule="evenodd" clip-rule="evenodd" d="M8.29509 2C7.0396 2 6.02186 2.98545 6.02186 4.20106V5.72487H9.95627V6.14815H4.27322C3.01775 6.14815 2 7.1336 2 8.34923V11.6508C2 12.8664 3.01775 13.8518 4.27322 13.8518H5.5847V11.9894C5.5847 10.7738 6.60246 9.78832 7.85792 9.78832H12.0546C13.117 9.78832 13.9781 8.95451 13.9781 7.92592V4.20106C13.9781 2.98545 12.9604 2 11.7049 2H8.29509ZM7.77051 4.70899C8.20507 4.70899 8.55739 4.36787 8.55739 3.94709C8.55739 3.5263 8.20507 3.18518 7.77051 3.18518C7.33589 3.18518 6.9836 3.5263 6.9836 3.94709C6.9836 4.36787 7.33589 4.70899 7.77051 4.70899Z" fill="url(#paint0_linear_2014_16870)"/>
<path fill-rule="evenodd" clip-rule="evenodd" d="M11.7045 18C12.96 18 13.9778 17.0146 13.9778 15.7989V14.2751H10.0433V13.8518H15.7264C16.9819 13.8518 17.9996 12.8664 17.9996 11.6508V8.34918C17.9996 7.13357 16.9819 6.14813 15.7264 6.14813H14.4149V8.01057C14.4149 9.2262 13.3971 10.2116 12.1417 10.2116H7.94497C6.88264 10.2116 6.02148 11.0454 6.02148 12.074V15.7989C6.02148 17.0146 7.03926 18 8.29468 18H11.7045ZM12.2291 15.291C11.7945 15.291 11.4423 15.6321 11.4423 16.0529C11.4423 16.4737 11.7945 16.8148 12.2291 16.8148C12.6637 16.8148 13.016 16.4737 13.016 16.0529C13.016 15.6321 12.6637 15.291 12.2291 15.291Z" fill="url(#paint1_linear_2014_16870)"/>
<defs>
<linearGradient id="paint0_linear_2014_16870" x1="7.98907" y1="2" x2="7.98907" y2="13.8518" gradientUnits="userSpaceOnUse">
<stop stop-color="#327EBD"/>
<stop offset="1" stop-color="#1565A7"/>
</linearGradient>
<linearGradient id="paint1_linear_2014_16870" x1="12.0106" y1="6.14813" x2="12.0106" y2="18" gradientUnits="userSpaceOnUse">
<stop stop-color="#FFDA4B"/>
<stop offset="1" stop-color="#F9C600"/>
</linearGradient>
</defs>
</svg>
