<svg width="20" height="20" viewBox="0 0 20 20" fill="none" xmlns="http://www.w3.org/2000/svg">
<path d="M10.0019 11.753C10.8939 11.753 11.617 11.02 11.617 10.1158C11.617 9.21176 10.8939 8.47877 10.0019 8.47877C9.10983 8.47877 8.38672 9.21176 8.38672 10.1158C8.38672 11.02 9.10983 11.753 10.0019 11.753Z" fill="#00D8FF"/>
<path d="M10.0006 13.4705C14.7871 13.4705 18.6673 11.9688 18.6673 10.1163C18.6673 8.26395 14.7871 6.76223 10.0006 6.76223C5.21417 6.76223 1.33398 8.26395 1.33398 10.1163C1.33398 11.9688 5.21417 13.4705 10.0006 13.4705Z" stroke="#00D8FF" stroke-width="1.5"/>
<path d="M7.13276 11.7929C9.52599 15.9945 12.7491 18.6496 14.3318 17.7234C15.9146 16.7973 15.2575 12.6403 12.8643 8.43883C10.471 4.23721 7.24789 1.58199 5.66519 2.5082C4.08248 3.43441 4.73954 7.5913 7.13276 11.7929Z" stroke="#00D8FF" stroke-width="1.5"/>
<path d="M7.13276 8.43879C4.73954 12.6404 4.08248 16.7973 5.66519 17.7235C7.24789 18.6497 10.471 15.9944 12.8643 11.7929C15.2575 7.59131 15.9146 3.43441 14.3318 2.5082C12.7491 1.58199 9.52599 4.23721 7.13276 8.43879Z" stroke="#00D8FF" stroke-width="1.5"/>
</svg>
