<svg width="20" height="20" viewBox="0 0 20 20" fill="none" xmlns="http://www.w3.org/2000/svg">
<path d="M14.4179 16.4062C12.3747 17.5815 9.56526 17.7022 6.73879 16.496C4.45019 15.5265 2.55127 13.8294 1.33398 11.8904C1.91828 12.3752 2.59996 12.7631 3.33032 13.1023C6.24929 14.4646 9.16767 14.3713 11.2214 13.1058C8.29987 10.8756 5.81358 7.96307 3.96339 5.58771C3.57369 5.19982 3.28154 4.71498 2.9894 4.27865C5.22919 6.31489 8.78381 8.88426 10.0495 9.61185C7.37187 6.79965 4.98581 3.30914 5.083 3.40592C9.31929 7.67237 13.2635 10.0966 13.2635 10.0966C13.394 10.1699 13.4947 10.2308 13.5757 10.2854C13.661 10.0692 13.7359 9.84461 13.799 9.61185C14.4806 7.13925 13.7018 4.32704 11.9973 2.00004C15.9412 4.37565 18.2786 8.83587 17.3045 12.5692C17.2791 12.6699 17.2515 12.7693 17.2217 12.867C19.1691 15.2912 18.6678 17.9024 18.4244 17.4176C17.3679 15.3591 15.4123 15.9886 14.4179 16.4062Z" fill="url(#paint0_linear_2014_16811)"/>
<defs>
<linearGradient id="paint0_linear_2014_16811" x1="10.007" y1="2.00004" x2="10.007" y2="17.4771" gradientUnits="userSpaceOnUse">
<stop stop-color="#F88A36"/>
<stop offset="1" stop-color="#FD2020"/>
</linearGradient>
</defs>
</svg>
