<svg width="20" height="20" viewBox="0 0 20 20" fill="none" xmlns="http://www.w3.org/2000/svg">
<path d="M9.02369 2C8.73969 2.008 8.46118 2.143 8.22673 2.4035C8.0967 2.5495 7.98721 2.711 7.89622 2.8855C7.66171 3.328 7.61473 3.828 7.52619 4.3125C7.36219 5.2215 7.20071 6.13001 7.0417 7.039C7.0237 7.14601 6.9792 7.19001 6.8802 7.21851C5.7007 7.59099 4.5207 7.96049 3.3487 8.34353C3.0907 8.42699 2.8332 8.53601 2.6067 8.67953C1.9112 9.12198 1.8072 9.84902 2.3282 10.487C2.5602 10.7685 2.8567 10.9635 3.1852 11.1095C3.9197 11.4375 4.6542 11.7605 5.3857 12.0915C5.3987 12.0965 5.4092 12.0995 5.4197 12.1045H5.4172L6.2897 12.4615C6.2897 12.477 6.2897 12.49 6.2897 12.5085C6.1567 13.8625 6.0292 15.217 5.9017 16.5735C5.8757 16.852 5.8937 17.1255 5.9927 17.394C6.2037 17.972 6.7012 18.157 7.2452 17.86C7.4927 17.7245 7.69073 17.5295 7.87019 17.3155C8.78422 16.232 9.7007 15.1515 10.6122 14.0655C10.6852 13.977 10.7477 13.9665 10.8542 14.0005C11.0862 14.0785 11.3177 14.154 11.5497 14.2325H11.5522C11.5652 14.2405 11.5807 14.2455 11.5992 14.2535L11.6957 14.282C12.5262 14.558 13.4822 14.7975 14.3127 15.0735C14.5807 15.162 14.7292 15.183 15.0107 15.1385C15.2192 15.107 15.4067 15.097 15.5627 14.982C15.9637 14.7605 16.2267 14.344 16.2217 13.8595C16.2192 13.5755 16.1177 13.318 15.9872 13.0705C15.4402 12.0315 14.8962 10.995 14.3467 9.95852C14.2947 9.85953 14.2972 9.79702 14.3727 9.70849C15.2922 8.63302 16.2087 7.55201 17.1277 6.4715C17.3072 6.25801 17.4687 6.03401 17.5627 5.76601C17.7682 5.18251 17.5027 4.719 16.8962 4.607C16.6227 4.56 16.3417 4.5755 16.0732 4.6515C14.7557 5.00051 13.4402 5.347 12.1277 5.69851C12.0107 5.73 11.9532 5.709 11.8907 5.602C11.3592 4.706 10.8202 3.813 10.2762 2.925C10.1537 2.7195 10.0082 2.529 9.84118 2.3575C9.59372 2.1125 9.30721 1.9925 9.02369 2ZM9.1382 4.469C9.1902 4.5055 9.23473 4.5525 9.26321 4.6095C9.84369 5.573 10.4247 6.53651 11.0027 7.50251C11.0497 7.58049 11.0937 7.60651 11.1877 7.58049C12.2057 7.30951 13.2217 7.039 14.2397 6.77051C14.4847 6.7055 14.7292 6.643 14.9767 6.57801C14.9662 6.6275 14.9427 6.67451 14.9092 6.711C14.0707 7.69798 13.2322 8.68502 12.3912 9.6695C12.3182 9.75798 12.3107 9.81798 12.3627 9.91702C12.9877 11.12 13.5422 12.1225 14.0292 13.0915L11.5657 12.412C11.2062 12.292 10.8467 12.1725 10.4877 12.0525C10.3807 12.016 10.3212 12.0315 10.2482 12.1175C9.41772 13.1095 8.57873 14.0995 7.74321 15.089C7.71169 15.128 7.67019 15.1595 7.62321 15.175C7.64673 14.925 7.66769 14.6725 7.69073 14.42C7.79222 13.3705 7.8887 12.3235 7.9927 11.274C7.97169 11.063 8.07073 11.006 7.7767 10.912C6.7817 10.516 5.5477 10.032 4.5682 9.64102C4.6127 9.59953 4.6672 9.56801 4.7272 9.55249C5.9252 9.17249 7.1232 8.79201 8.32369 8.41451C8.40721 8.38849 8.4567 8.35451 8.46422 8.26102C8.47222 8.16198 8.49819 8.06299 8.51371 7.96651C8.67521 7.05751 8.8367 6.149 8.9982 5.24C9.04518 4.982 9.09222 4.727 9.13873 4.469H9.1382Z" fill="#E25A1C"/>
</svg>
