<svg width="650" height="650" viewBox="0 0 650 650" fill="none" xmlns="http://www.w3.org/2000/svg">
<g clip-path="url(#clip0_2014_15300)">
<path fill-rule="evenodd" clip-rule="evenodd" d="M165.196 515.129C256.361 606.294 407.356 603.241 505.297 505.299C603.239 407.358 606.292 256.363 515.127 165.198C500.914 150.985 411.057 217.797 314.426 314.428C217.795 411.059 150.983 500.916 165.196 515.129ZM265.985 566.671C344.887 588.621 435.25 566.769 501.008 501.01C566.767 435.252 588.619 344.889 566.669 265.987C579.386 339.413 552.577 423.705 488.14 488.142C423.703 552.579 339.411 579.388 265.985 566.671ZM483.851 483.853C416.45 551.254 327.288 576.232 252.811 557.323C322.242 566.866 405.317 536.652 470.983 470.985C536.65 405.319 566.864 322.244 557.321 252.813C576.23 327.29 551.252 416.452 483.851 483.853ZM239.831 548.447C309.492 564.29 397.421 535.97 466.694 466.696C535.968 397.423 564.288 309.494 548.445 239.833C550.192 257.821 548.879 277.071 544.662 296.895C533.603 348.884 502.547 405.108 453.826 453.828C405.106 502.549 348.882 533.605 296.893 544.664C277.069 548.881 257.819 550.194 239.831 548.447ZM296.007 538.513C271.579 543.709 248.274 544.332 227.336 540.213C245.137 541.072 264.649 538.392 284.996 532.473C333.805 518.275 388.022 485.319 436.669 436.672C485.317 388.024 518.273 333.807 532.471 284.998C538.39 264.651 541.07 245.139 540.211 227.338C544.33 248.276 543.707 271.581 538.511 296.009C527.758 346.557 497.448 401.629 449.537 449.539C401.627 497.45 346.555 527.76 296.007 538.513ZM215.702 532.678C235.681 535.823 258.797 533.667 283.64 526.44C331.158 512.617 384.397 480.365 432.38 432.382C480.363 384.399 512.615 331.16 526.438 283.642C533.665 258.799 535.821 235.683 532.676 215.704C532.417 232.971 528.094 252.482 520.255 273.12C502.931 318.728 468.091 370.936 419.513 419.515C370.934 468.093 318.726 502.933 273.118 520.257C252.48 528.096 232.969 532.419 215.702 532.678ZM271.255 514.393C246.046 523.969 223.392 527.887 204.833 525.896C221.075 524.313 240.288 518.114 261.254 508.01C303.643 487.58 353.841 450.872 402.356 402.358C450.87 353.843 487.578 303.645 508.008 261.256C518.112 240.29 524.311 221.077 525.894 204.835C527.885 223.394 523.967 246.048 514.391 271.257C497.484 315.767 463.275 367.173 415.223 415.225C367.171 463.277 315.765 497.486 271.255 514.393ZM194.808 519.96C197.763 520.075 200.894 519.981 204.196 519.678C219.492 518.272 238.085 512.387 258.856 502.376C300.374 482.366 349.95 446.185 398.066 398.068C446.183 349.952 482.364 300.376 502.374 258.858C512.385 238.087 518.27 219.494 519.676 204.198C519.979 200.896 520.073 197.765 519.958 194.81C519.725 195.91 519.464 197.026 519.177 198.156C515.556 212.374 507.469 229.843 495.727 249.4C472.216 288.558 433.652 336.747 385.199 385.201C336.745 433.654 288.556 472.218 249.398 495.729C229.841 507.471 212.372 515.558 198.154 519.179C197.024 519.466 195.908 519.727 194.808 519.96ZM197.014 513.086C190.526 514.738 185.089 515.314 180.662 514.935C213.263 503.304 287.341 444.454 365.897 365.899C444.452 287.343 503.302 213.265 514.933 180.664C515.312 185.091 514.736 190.528 513.084 197.016C509.692 210.336 501.974 227.158 490.392 246.449C467.252 284.99 429.086 332.734 380.909 380.911C332.732 429.088 284.988 467.254 246.447 490.394C227.156 501.976 210.335 509.694 197.014 513.086ZM506.969 169.775C509.438 169.371 510.319 169.709 510.515 169.81C510.616 170.006 510.954 170.887 510.55 173.356C510.043 176.457 508.531 180.843 505.766 186.557C500.269 197.916 490.528 213.096 477.124 231.123C450.377 267.096 409.759 313.458 361.608 361.61C313.456 409.761 267.094 450.379 231.121 477.126C213.094 490.53 197.914 500.271 186.555 505.768C180.841 508.533 176.455 510.045 173.354 510.552C170.885 510.956 170.004 510.618 169.808 510.517C169.707 510.321 169.369 509.44 169.773 506.971C170.28 503.87 171.792 499.484 174.557 493.77C180.054 482.411 189.795 467.231 203.199 449.204C229.946 413.231 270.564 366.869 318.715 318.717C366.867 270.566 413.229 229.948 449.202 203.201C467.229 189.797 482.409 180.056 493.768 174.559C499.482 171.794 503.868 170.282 506.969 169.775Z" fill="url(#paint0_linear_2014_15300)"/>
<path fill-rule="evenodd" clip-rule="evenodd" d="M139.136 489.068C47.9711 397.903 51.0236 246.909 148.965 148.967C246.907 51.0252 397.902 47.9727 489.067 139.137C503.28 153.351 436.467 243.208 339.837 339.838C243.206 436.469 153.349 503.281 139.136 489.068ZM87.5932 388.28C65.6438 309.378 87.4961 219.015 153.255 153.256C219.013 87.4976 309.376 65.6454 388.278 87.5949C314.852 74.8782 230.559 101.687 166.122 166.124C101.685 230.561 74.8765 314.853 87.5932 388.28ZM170.412 170.413C103.01 237.814 78.0326 326.976 96.9416 401.453C87.3987 332.022 117.613 248.947 183.279 183.281C248.945 117.615 332.021 87.4004 401.452 96.9433C326.975 78.0341 237.813 103.012 170.412 170.413ZM105.817 414.433C89.9747 344.773 118.295 256.844 187.569 187.57C256.842 118.297 344.771 89.9762 414.432 105.819C396.444 104.072 377.194 105.385 357.369 109.602C305.381 120.661 249.156 151.718 200.436 200.438C151.716 249.158 120.66 305.382 109.601 357.371C105.384 377.195 104.071 396.445 105.817 414.433ZM115.752 358.257C110.556 382.686 109.933 405.991 114.052 426.929C113.192 409.128 115.872 389.615 121.791 369.268C135.99 320.459 168.946 266.242 217.593 217.595C266.241 168.947 320.457 135.991 369.266 121.793C389.614 115.874 409.126 113.194 426.927 114.053C405.989 109.935 382.684 110.557 358.256 115.754C307.708 126.506 252.636 156.817 204.726 204.727C156.815 252.638 126.505 307.71 115.752 358.257ZM121.587 438.562C118.441 418.584 120.598 395.467 127.825 370.624C141.648 323.106 173.899 269.867 221.882 221.884C269.866 173.901 323.105 141.649 370.622 127.826C395.466 120.6 418.582 118.443 438.561 121.589C421.294 121.847 401.783 126.17 381.145 134.01C335.537 151.334 283.329 186.173 234.75 234.752C186.172 283.331 151.332 335.539 134.008 381.147C126.169 401.785 121.845 421.296 121.587 438.562ZM139.872 383.009C130.296 408.218 126.378 430.872 128.369 449.431C129.951 433.189 136.15 413.976 146.255 393.01C166.685 350.622 203.393 300.423 251.907 251.909C300.421 203.395 350.62 166.686 393.009 146.257C413.975 136.152 433.187 129.953 449.429 128.37C430.871 126.38 408.217 130.298 383.007 139.874C338.498 156.78 287.091 190.989 239.039 239.041C190.987 287.093 156.779 338.5 139.872 383.009ZM134.304 459.457C134.19 456.501 134.284 453.37 134.587 450.069C135.992 434.772 141.878 416.179 151.888 395.409C171.899 353.89 208.08 304.315 256.196 256.198C304.313 208.081 353.888 171.901 395.407 151.89C416.178 141.879 434.771 135.994 450.067 134.589C453.369 134.285 456.5 134.192 459.455 134.306C458.355 134.539 457.239 134.8 456.108 135.088C441.89 138.708 424.422 146.795 404.864 158.538C365.707 182.048 317.518 220.612 269.064 269.066C220.61 317.519 182.046 365.708 158.536 404.866C146.794 424.424 138.707 441.892 135.086 456.11C134.798 457.24 134.537 458.356 134.304 459.457ZM141.178 457.251C139.526 463.739 138.951 469.175 139.33 473.603C150.961 441.002 209.81 366.923 288.366 288.367C366.921 209.812 441 150.963 473.601 139.331C469.174 138.952 463.737 139.528 457.249 141.18C443.928 144.572 427.106 152.29 407.815 163.873C369.275 187.012 321.53 225.178 273.353 273.355C225.176 321.532 187.011 369.277 163.871 407.817C152.289 427.108 144.57 443.93 141.178 457.251ZM484.49 147.296C484.894 144.827 484.556 143.945 484.455 143.749C484.259 143.649 483.377 143.31 480.908 143.714C477.807 144.221 473.422 145.733 467.708 148.498C456.348 153.996 441.169 163.736 423.141 177.141C387.169 203.888 340.807 244.505 292.655 292.657C244.503 340.808 203.886 387.171 177.139 423.143C163.735 441.171 153.994 456.35 148.497 467.709C145.731 473.424 144.22 477.809 143.713 480.91C143.309 483.379 143.647 484.261 143.748 484.456C143.943 484.557 144.825 484.895 147.294 484.491C150.395 483.984 154.78 482.473 160.495 479.707C171.854 474.21 187.033 464.469 205.061 451.065C241.033 424.318 287.396 383.701 335.547 335.549C383.699 287.397 424.316 241.035 451.063 205.063C464.468 187.035 474.208 171.856 479.706 160.496C482.471 154.782 483.983 150.397 484.49 147.296Z" fill="url(#paint1_linear_2014_15300)"/>
</g>
<defs>
<linearGradient id="paint0_linear_2014_15300" x1="525.818" y1="504.349" x2="304.818" y2="306.099" gradientUnits="userSpaceOnUse">
<stop stop-color="white"/>
<stop offset="1" stop-color="white" stop-opacity="0"/>
</linearGradient>
<linearGradient id="paint1_linear_2014_15300" x1="116.321" y1="120.852" x2="348.59" y2="349.211" gradientUnits="userSpaceOnUse">
<stop stop-color="white"/>
<stop offset="1" stop-color="white" stop-opacity="0"/>
</linearGradient>
<clipPath id="clip0_2014_15300">
<rect width="650" height="650" fill="white"/>
</clipPath>
</defs>
</svg>
